#!OML:ASF G:\JayActor3\Patient Classification 1\Patient 1\Session 5\male.ASF
:FULLY-SPECIFIED
:DEGREES
1326
root 8.22893 17.1758 -2.45551 -211.236 -79.5866 202.189
lowerback 9.17169 -1.90627 6.97874
upperback 2.56697 -1.97588 0.586159
thorax -2.67217 -1.05146 -3.08283
lowerneck -1.85173 -1.83339 1.40766
upperneck 6.12924 -2.7363 2.62433
head 2.25981 -1.29126 0.519287
rclavicle 1.23078e-014 -5.96354e-015
rhumerus -40.5971 -16.2619 -80.8581
rradius 18.5315
rwrist 15.0738
rhand -21.7263 -9.52699
rfingers 7.12502
rthumb 4.67309 -39.4555
lclavicle 1.23078e-014 -5.96354e-015
lhumerus -38.5314 23.7346 71.8595
lradius 11.4839
lwrist 1.78658
lhand -19.1843 11.2007
lfingers 7.12502
lthumb 7.12727 41.0607
rfemur 16.6391 -5.22692 31.8563
rtibia 1.90833e-014
rfoot -14.4058 -6.60451
rtoes -0.33019
lfemur -66.9658 33.5701 -6.76125
ltibia 142.942
lfoot -23.6742 -24.806
ltoes -22.9842
1327
root 8.21447 17.1705 -2.45858 -210.973 -79.4921 201.78
lowerback 9.38407 -1.90127 6.93959
upperback 2.60172 -1.95962 0.563497
thorax -2.75115 -1.04586 -3.08133
lowerneck -1.83128 -1.82203 1.38056
upperneck 6.09493 -2.71959 2.648
head 2.24553 -1.28349 0.532077
rclavicle 3.27902e-014 1.27222e-014
rhumerus -40.5955 -16.1625 -80.9609
rradius 18.588
rwrist 14.9823
rhand -21.6876 -9.57257
rfingers 7.12502
rthumb 4.7104 -39.5002
lclavicle 3.27902e-014 1.27222e-014
lhumerus -38.5176 23.7477 71.8047
lradius 11.4761
lwrist 1.75765
lhand -19.1976 11.249
lfingers 7.12502
lthumb 7.11441 41.1095
rfemur 16.8507 -5.23929 31.8188
rtibia -4.77083e-015
rfoot -14.2077 -6.37212
rtoes 0.716981
lfemur -67.5104 33.2059 -6.9315
ltibia 143.163
lfoot -23.5422 -24.6667
ltoes -22.9832
1328
root 8.19951 17.1648 -2.4618 -210.641 -79.3971 201.287
lowerback 9.60363 -1.8927 6.88717
upperback 2.64676 -1.94053 0.534777
thorax -2.82277 -1.03848 -3.07916
lowerneck -1.81804 -1.81124 1.35281
upperneck 6.06482 -2.70371 2.66886
head 2.23391 -1.27608 0.543978
rclavicle 2.14106e-014 -9.93923e-017
rhumerus -40.5859 -16.0677 -81.0682
rradius 18.6462
rwrist 14.8879
rhand -21.6463 -9.60904
rfingers 7.12502
rthumb 4.75029 -39.5358
lclavicle 2.14106e-014 -9.93923e-017
lhumerus -38.4781 23.6658 71.8225
lradius 11.5011
lwrist 1.82473
lhand -19.211 11.3457
lfingers 7.12502
lthumb 7.10144 41.2066
rfemur 17.0834 -5.24582 31.7663
rtibia -1.90833e-014
rfoot -14.0296 -6.1871
rtoes 1.66098
lfemur -68.0543 32.8494 -7.11374
ltibia 143.366
lfoot -23.4063 -24.5301
ltoes -22.9826
1329
root 8.18377 17.1588 -2.46553 -210.275 -79.2981 200.746
lowerback 9.82543 -1.8801 6.8248
upperback 2.70387 -1.91832 0.502849
thorax -2.88238 -1.02907 -3.07545
lowerneck -1.81208 -1.80159 1.32587
upperneck 6.03662 -2.68934 2.68657
head 2.22417 -1.26936 0.554636
rclavicle -4.50903e-014 1.31198e-014
rhumerus -40.5631 -15.9862 -81.173
rradius 18.6951
rwrist 14.7951
rhand -21.6127 -9.62167
rfingers 7.12502
rthumb 4.78278 -39.5477
lclavicle -4.50903e-014 1.31198e-014
lhumerus -38.4194 23.5513 71.8695
lradius 11.5372
lwrist 1.91792
lhand -19.2192 11.4608
lfingers 7.12502
lthumb 7.09357 41.3219
rfemur 17.338 -5.24697 31.7065
rtibia 1.27222e-014
rfoot -13.886 -6.04119
rtoes 2.45407
lfemur -68.5936 32.4993 -7.29788
ltibia 143.544
lfoot -23.2802 -24.4067
ltoes -23.0007
1330
root 8.16727 17.1531 -2.46963 -209.871 -79.2029 200.162
lowerback 10.0407 -1.86556 6.75012
upperback 2.76951 -1.8964 0.467683
thorax -2.92917 -1.0193 -3.06864
lowerneck -1.80875 -1.79323 1.29713
upperneck 6.00941 -2.67671 2.70438
head 2.21528 -1.26349 0.565553
rclavicle -5.67963e-015 1.72943e-014
rhumerus -40.5281 -15.9117 -81.275
rradius 18.7348
rwrist 14.7005
rhand -21.5881 -9.62401
rfingers 7.12502
rthumb 4.80652 -39.5495
lclavicle -5.67963e-015 1.72943e-014
lhumerus -38.3526 23.4509 71.9128
lradius 11.5704
lwrist 1.99093
lhand -19.2309 11.5591
lfingers 7.12502
lthumb 7.08229 41.4206
rfemur 17.6041 -5.2477 31.6354
rtibia 2.70347e-014
rfoot -13.7736 -5.91717
rtoes 3.1237
lfemur -69.1347 32.1522 -7.49958
ltibia 143.69
lfoot -23.1726 -24.2963
ltoes -23.0531
1331
root 8.15003 17.1481 -2.47433 -209.461 -79.1143 199.573
lowerback 10.2479 -1.85098 6.66487
upperback 2.83937 -1.87694 0.432005
thorax -2.96694 -1.01044 -3.05649
lowerneck -1.80973 -1.78655 1.27135
upperneck 5.9848 -2.66649 2.71993
head 2.20796 -1.25874 0.575149
rclavicle 1.23289e-015 2.98177e-015
rhumerus -40.4855 -15.8496 -81.3668
rradius 18.7646
rwrist 14.6143
rhand -21.5714 -9.61795
rfingers 7.12502
rthumb 4.82258 -39.5431
lclavicle 1.23289e-015 2.98177e-015
lhumerus -38.2881 23.4211 71.912
lradius 11.5809
lwrist 1.98837
lhand -19.2401 11.614
lfingers 7.12502
lthumb 7.0734 41.4758
rfemur 17.8743 -5.25296 31.5586
rtibia 5.24792e-014
rfoot -13.7077 -5.8102
rtoes 3.57637
lfemur -69.6902 31.8045 -7.72277
ltibia 143.798
lfoot -23.0724 -24.2043
ltoes -23.1233
